HIERARCHY
ROOT Hips
{
	OFFSET	0.00	0.00	0.00
	CHANNELS 6 Xposition Yposition Zposition Zrotation Xrotation Yrotation
	JOINT LeftUpLeg
	{
		OFFSET	 0.126116	-0.065224	 0.014019
		CHANNELS 3 Zrotation Xrotation Yrotation
		JOINT LeftLeg
		{
			OFFSET	 0.000000	 0.569914	 0.000000
			CHANNELS 3 Zrotation Xrotation Yrotation
			JOINT LeftFoot
			{
				OFFSET	 0.000000	 0.544423	 0.000000
				CHANNELS 3 Zrotation Xrotation Yrotation
				JOINT LeftToeBase
				{
					OFFSET	 0.000000	 0.207117	 0.000000
					CHANNELS 3 Zrotation Xrotation Yrotation
					End Site
					{
						OFFSET	 0.000000	 0.207117	 0.000000
					}
				}
			}
		}
	}
	JOINT RightUpLeg
	{
		OFFSET	-0.124023	-0.065224	 0.008373
		CHANNELS 3 Zrotation Xrotation Yrotation
		JOINT RightLeg
		{
			OFFSET	 0.000000	 0.570047	 0.000000
			CHANNELS 3 Zrotation Xrotation Yrotation
			JOINT RightFoot
			{
				OFFSET	 0.000000	 0.544354	 0.000000
				CHANNELS 3 Zrotation Xrotation Yrotation
				JOINT RightToeBase
				{
					OFFSET	 0.000000	 0.207540	 0.000000
					CHANNELS 3 Zrotation Xrotation Yrotation
					End Site
					{
						OFFSET	 0.000000	 0.207540	 0.000000
					}
				}
			}
		}
	}
	JOINT Spine
	{
		OFFSET	 0.000184	 0.117403	 0.007763
		CHANNELS 3 Zrotation Xrotation Yrotation
		JOINT Spine1
		{
			OFFSET	 0.000000	 0.137269	 0.000000
			CHANNELS 3 Zrotation Xrotation Yrotation
			JOINT Spine2
			{
				OFFSET	 0.000000	 0.156879	 0.000000
				CHANNELS 3 Zrotation Xrotation Yrotation
				JOINT LeftShoulder
				{
					OFFSET	 0.080501	 0.160143	 0.002496
					CHANNELS 3 Zrotation Xrotation Yrotation
					JOINT LeftArm
					{
						OFFSET	 0.000000	 0.164363	 0.000000
						CHANNELS 3 Zrotation Xrotation Yrotation
						JOINT LeftForeArm
						{
							OFFSET	 0.000000	 0.364576	 0.000000
							CHANNELS 3 Zrotation Xrotation Yrotation
							JOINT LeftHand
							{
								OFFSET	 0.000000	 0.360812	 0.000000
								CHANNELS 3 Zrotation Xrotation Yrotation
								JOINT LeftHandIndex1
								{
									OFFSET	 0.000000	 0.086006	 0.000000
									CHANNELS 3 Zrotation Xrotation Yrotation
									JOINT LeftHandIndex2
									{
										OFFSET	 0.000000	 0.047237	 0.000000
										CHANNELS 3 Zrotation Xrotation Yrotation
										JOINT LeftHandIndex3
										{
											OFFSET	-0.004284	 0.038165	 0.000551
											CHANNELS 3 Zrotation Xrotation Yrotation
											End Site
											{
												OFFSET	-0.004284	 0.038165	 0.000551
											}
										}
									}
								}
							}
						}
					}
				}
				JOINT Neck
				{
					OFFSET	 0.000000	 0.176489	 0.000000
					CHANNELS 3 Zrotation Xrotation Yrotation
					JOINT Head
					{
						OFFSET	 0.000000	 0.077941	 0.001747
						CHANNELS 3 Zrotation Xrotation Yrotation
						End Site
						{
							OFFSET	 0.000000	 0.077941	 0.001747
						}
					}
				}
				JOINT RightShoulder
				{
					OFFSET	-0.080363	 0.159706	-0.000306
					CHANNELS 3 Zrotation Xrotation Yrotation
					JOINT RightArm
					{
						OFFSET	 0.000000	 0.164196	 0.000000
						CHANNELS 3 Zrotation Xrotation Yrotation
						JOINT RightForeArm
						{
							OFFSET	 0.000000	 0.365611	 0.000000
							CHANNELS 3 Zrotation Xrotation Yrotation
							JOINT RightHand
							{
								OFFSET	 0.000000	 0.360648	 0.000000
								CHANNELS 3 Zrotation Xrotation Yrotation
								JOINT RightHandIndex1
								{
									OFFSET	 0.000000	 0.069977	 0.000000
									CHANNELS 3 Zrotation Xrotation Yrotation
									JOINT RightHandIndex2
									{
										OFFSET	 0.000000	 0.052305	 0.000000
										CHANNELS 3 Zrotation Xrotation Yrotation
										JOINT RightHandIndex3
										{
											OFFSET	 0.009002	 0.042196	 0.000782
											CHANNELS 3 Zrotation Xrotation Yrotation
											End Site
											{
												OFFSET	 0.009002	 0.042196	 0.000782
											}
										}
									}
								}
							}
						}
					}
				}
			}
		}
	}
}
MOTION
Frames:    12
Frame Time: 0.03333334
-0.017104	 1.255415	 0.115202	 4.654452	 0.213675	 173.968500	-170.731400	 16.111840	 7.599073	 2.448170	-24.858050	 1.116557	 46.091440	 46.694840	-63.024490	 4.912823	 28.009650	-6.307258	-172.772200	 5.030480	-1.764167	-1.735183	-19.358630	 1.881776	-57.215930	 58.389600	 63.749570	-0.375668	 31.170650	 1.632221	 1.281440	 3.990286	-7.551453	 9.616489	 7.787207	-4.264969	-8.206444	-5.664747	 14.700460	-112.571500	 3.138539	 88.315560	-5.082981	 50.403710	 30.539000	 19.207160	-0.993805	 0.736336	 0.288016	-2.526041	-70.165630	-8.023969	 12.503880	-5.831554	-7.228709	 12.665360	 2.804196	 4.963066	-4.014628	-0.346955	 1.526875	-13.927950	 1.348667	-2.000681	 8.880652	-24.654630	 109.136000	 0.666711	-88.591130	-11.728390	 63.824500	 11.317750	-5.061679	-0.467714	 41.399160	-6.632277	 10.944750	-79.513290	 2.020684	 8.322518	 8.960804	 15.202860	 20.243920	-6.342806	-8.239867	-2.131385	 0.447455
-0.017094	 1.255209	 0.115393	 4.590354	-0.020139	 173.986100	-170.785100	 16.407410	 7.636795	 2.456041	-24.928270	 1.132536	 46.130660	 46.654270	-63.096520	 4.912824	 28.009660	-6.307253	-172.805300	 5.432236	-1.753850	-1.763184	-19.647140	 1.840872	-57.376370	 58.452950	 63.959130	-0.378280	 31.173850	 1.634812	 1.237279	 3.758343	-7.557811	 9.529239	 7.572536	-4.237391	-8.134387	-5.534578	 14.686180	-112.556700	 3.119953	 88.313020	 5.120841	 53.415200	 22.499220	 5.117409	-0.269476	 0.579588	 7.256188	-3.186401	-69.930690	-8.006856	 12.517910	-5.835787	-7.228786	 12.662100	 2.803751	 4.963066	-4.014628	-0.346955	 1.511544	-13.904650	 1.356500	-1.993388	 8.947139	-24.702890	 109.117400	 0.680897	-88.598340	-11.451230	 63.967650	 11.120830	-4.994870	-0.461601	 41.354190	-6.649270	 10.940700	-79.575160	 2.005954	 8.282789	 8.960458	 15.202920	 20.252730	-6.345218	-8.239867	-2.131385	 0.447455
-0.017011	 1.255114	 0.115542	 4.483076	-0.245935	 174.048000	-170.883400	 16.662690	 7.699406	 2.453320	-24.904140	 1.154560	 46.139250	 46.584590	-63.107660	 4.912825	 28.009670	-6.307245	-172.882900	 5.815587	-1.719804	-1.788590	-19.908120	 1.774801	-57.572110	 58.470590	 64.207250	-0.383087	 31.179720	 1.639579	 1.157117	 3.545352	-7.593812	 9.394156	 7.288005	-4.228652	-8.007532	-5.349341	 14.661240	-112.529300	 3.085715	 88.308300	 4.909660	 53.634530	 22.619740	 5.057870	-0.266335	 0.578113	 7.144556	-3.397890	-69.599820	-7.975368	 12.543720	-5.843586	-7.228930	 12.656120	 2.802933	 4.963066	-4.014628	-0.346955	 1.483334	-13.861790	 1.370926	-1.979780	 9.069423	-24.791790	 109.083300	 0.706987	-88.611600	-11.242210	 64.109030	 11.034550	-4.937300	-0.456289	 41.270820	-6.520622	 10.883720	-79.701790	 1.978858	 8.209695	 8.959794	 15.203030	 20.268950	-6.349655	-8.239867	-2.131385	 0.447455
-0.016926	 1.254961	 0.115637	 4.341835	-0.493878	 174.147600	-171.029400	 16.951980	 7.802099	 2.451100	-24.884250	 1.192244	 46.167900	 46.500500	-63.135170	 4.912828	 28.009690	-6.307231	-172.994400	 6.258375	-1.651331	-1.820983	-20.239420	 1.668764	-57.855980	 58.476080	 64.561820	-0.391150	 31.189570	 1.647575	 1.056271	 3.331283	-7.659225	 9.208789	 6.867321	-4.228436	-7.811610	-5.066506	 14.619000	-112.483500	 3.028330	 88.300460	 4.651380	 53.933590	 22.735090	 4.994018	-0.262956	 0.575750	 6.939071	-3.651968	-69.074420	-7.922554	 12.586990	-5.856699	-7.229170	 12.646070	 2.801562	 4.963066	-4.014628	-0.346955	 1.436016	-13.789940	 1.395159	-1.956406	 9.274412	-24.941090	 109.026000	 0.750766	-88.633760	-11.048590	 64.258840	 11.033350	-4.876099	-0.450645	 41.130900	-6.214246	 10.759780	-79.921400	 1.933429	 8.087124	 8.958603	 15.203220	 20.296140	-6.357096	-8.239867	-2.131385	 0.447455
-0.016862	 1.254772	 0.115637	 4.193725	-0.714527	 174.265400	-171.197700	 17.219340	 7.926148	 2.450496	-24.878790	 1.238160	 46.214940	 46.421230	-63.178520	 4.912832	 28.009700	-6.307216	-173.119700	 6.673483	-1.561321	-1.854417	-20.579990	 1.544809	-58.174360	 58.470920	 64.956480	-0.400904	 31.201480	 1.657248	 0.954947	 3.159461	-7.743804	 9.014606	 6.379603	-4.239724	-7.587782	-4.735723	 14.566590	-112.428100	 2.958911	 88.291030	 4.375395	 54.260410	 22.840240	 4.939090	-0.260072	 0.572956	 6.681983	-3.903867	-68.459270	-7.858652	 12.639310	-5.872616	-7.229460	 12.633930	 2.799904	 4.963066	-4.014628	-0.346955	 1.378765	-13.703060	 1.424540	-1.927202	 9.522196	-25.122220	 108.956700	 0.803744	-88.660510	-10.901440	 64.388320	 11.111280	-4.826808	-0.446093	 40.961720	-5.785177	 10.585950	-80.196560	 1.878499	 7.938879	 8.957031	 15.203440	 20.329020	-6.366098	-8.239867	-2.131385	 0.447455
-0.016819	 1.254500	 0.115506	 4.005333	-0.952523	 174.426600	-171.429300	 17.520340	 8.100052	 2.452214	-24.894100	 1.302266	 46.296550	 46.333760	-63.254040	 4.912837	 28.009730	-6.307193	-173.289400	 7.146862	-1.429319	-1.896559	-21.007090	 1.377827	-58.598810	 58.457550	 65.480630	-0.414491	 31.218070	 1.670723	 0.831231	 2.998063	-7.869565	 8.776753	 5.697751	-4.269151	-7.291799	-4.275558	 14.491100	-112.350900	 2.862240	 88.278030	 3.993823	 54.694720	 22.983040	 4.879857	-0.256923	 0.569212	 6.321496	-4.215314	-67.626010	-7.769629	 12.712130	-5.894884	-7.229866	 12.617010	 2.797595	 4.963066	-4.014628	-0.346955	 1.299009	-13.582130	 1.465580	-1.884841	 9.866932	-25.375300	 108.860400	 0.877549	-88.697640	-10.772880	 64.524710	 11.288780	-4.773019	-0.441156	 40.726650	-5.137606	 10.317080	-80.594150	 1.802037	 7.732460	 8.954604	 15.203770	 20.374810	-6.378634	-8.239867	-2.131385	 0.447455
-0.016866	 1.254249	 0.115226	 3.830682	-1.145203	 174.593500	-171.665000	 17.771320	 8.286580	 2.455421	-24.922760	 1.370310	 46.400130	 46.256520	-63.347840	 4.912842	 28.009760	-6.307169	-173.461200	 7.540672	-1.281363	-1.934247	-21.386970	 1.206787	-59.006630	 58.433030	 65.984500	-0.429044	 31.235820	 1.685156	 0.727158	 2.897788	-8.011244	 8.575246	 4.958038	-4.314359	-7.000966	-3.781235	 14.406790	-112.268400	 2.758743	 88.264260	 3.579546	 55.152580	 23.142420	 4.832179	-0.254409	 0.565355	 5.933205	-4.511334	-66.760120	-7.674267	 12.790050	-5.918858	-7.230300	 12.598910	 2.795124	 4.963066	-4.014628	-0.346955	 1.213570	-13.452740	 1.509684	-1.837296	 10.235620	-25.647400	 108.757300	 0.956642	-88.737260	-10.700340	 64.617990	 11.536600	-4.733896	-0.437579	 40.475340	-4.391848	 9.996316	-81.034300	 1.720208	 7.511471	 8.951699	 15.204130	 20.423820	-6.392060	-8.239867	-2.131385	 0.447455
-0.017022	 1.253980	 0.114761	 3.731222	-1.199255	 174.745200	-171.846200	 17.892600	 8.452632	 2.466735	-25.023570	 1.434515	 46.528350	 46.241870	-63.469170	 4.912846	 28.009790	-6.307147	-173.577900	 7.707708	-1.135583	-1.958979	-21.635250	 1.059602	-59.336110	 58.393470	 66.388400	-0.442239	 31.251910	 1.698242	 0.691818	 2.939934	-8.150515	 8.505201	 4.314883	-4.375940	-6.789399	-3.350722	 14.326870	-112.193600	 2.664934	 88.251910	 3.281670	 55.515350	 23.214570	 4.829122	-0.254229	 0.561859	 5.558278	-4.653303	-66.012500	-7.587794	 12.860630	-5.940704	-7.230694	 12.582500	 2.792884	 4.963066	-4.014628	-0.346955	 1.136094	-13.335540	 1.549804	-1.792246	 10.569380	-25.895070	 108.663800	 1.028414	-88.773060	-10.815770	 64.579350	 11.925180	-4.739150	-0.438001	 40.247570	-3.594451	 9.645812	-81.451160	 1.646075	 7.311199	 8.948793	 15.204480	 20.468240	-6.404231	-8.239867	-2.131385	 0.447455
-0.017098	 1.253857	 0.114535	 3.686234	-1.222382	 174.812000	-171.928700	 17.945300	 8.526538	 2.472042	-25.070710	 1.462693	 46.587590	 46.236990	-63.525600	 4.912849	 28.009800	-6.307137	-173.631300	 7.780457	-1.071083	-1.970143	-21.746960	 0.995912	-59.482670	 58.378130	 66.568620	-0.448057	 31.259000	 1.704011	 0.675835	 2.959697	-8.213581	 8.478900	 4.018973	-4.405146	-6.699131	-3.155694	 14.290830	-112.160600	 2.623554	 88.246480	 3.133651	 55.679510	 23.261300	 4.828128	-0.254152	 0.560397	 5.393957	-4.718518	-65.685390	-7.549664	 12.891720	-5.950370	-7.230869	 12.575270	 2.791897	 4.963066	-4.014628	-0.346955	 1.101932	-13.283900	 1.567533	-1.771800	 10.716370	-26.004520	 108.622700	 1.060027	-88.788780	-10.865440	 64.562200	 12.094990	-4.740513	-0.438132	 40.147440	-3.241058	 9.485394	-81.637760	 1.613408	 7.222928	 8.947430	 15.204630	 20.487820	-6.409595	-8.239867	-2.131385	 0.447455
-0.017081	 1.253885	 0.114585	 3.696284	-1.217165	 174.797100	-171.910200	 17.933560	 8.510142	 2.470859	-25.060250	 1.456441	 46.574380	 46.238010	-63.513050	 4.912848	 28.009800	-6.307139	-173.619300	 7.764288	-1.085397	-1.967656	-21.722220	 1.009979	-59.450210	 58.381510	 66.528660	-0.446768	 31.257430	 1.702733	 0.679438	 2.955391	-8.199565	 8.484507	 4.084792	-4.398540	-6.719003	-3.198896	 14.298850	-112.168000	 2.632744	 88.247690	 3.167232	 55.642960	 23.250170	 4.828172	-0.254159	 0.560716	 5.430398	-4.703969	-65.757780	-7.558113	 12.884840	-5.948227	-7.230830	 12.576870	 2.792116	 4.963066	-4.014628	-0.346955	 1.109501	-13.295330	 1.563602	-1.776360	 10.683820	-25.980260	 108.631800	 1.053018	-88.785290	-10.854310	 64.566050	 12.057150	-4.740440	-0.438156	 40.169630	-3.319310	 9.521133	-81.596250	 1.620645	 7.242484	 8.947736	 15.204590	 20.483480	-6.408407	-8.239867	-2.131385	 0.447455
-0.016972	 1.254064	 0.114912	 3.762311	-1.183031	 174.698300	-171.789300	 17.855540	 8.401023	 2.463114	-24.991330	 1.414704	 46.487740	 46.245770	-63.430580	 4.912845	 28.009780	-6.307154	-173.541200	 7.656693	-1.180745	-1.951263	-21.557940	 1.104708	-59.233940	 58.405090	 66.262960	-0.438159	 31.246930	 1.694195	 0.702891	 2.926333	-8.106929	 8.525221	 4.517369	-4.356181	-6.853769	-3.485272	 14.351880	-112.216700	 2.693942	 88.255710	 3.379134	 55.401780	 23.187170	 4.829794	-0.254275	 0.562974	 5.674037	-4.608517	-66.242550	-7.614533	 12.838810	-5.933939	-7.230572	 12.587570	 2.793576	 4.963066	-4.014628	-0.346955	 1.160051	-13.371760	 1.537386	-1.806373	 10.466250	-25.818380	 108.692700	 1.006203	-88.762000	-10.781190	 64.591280	 11.806290	-4.737037	-0.437886	 40.318160	-3.841823	 9.756478	-81.321780	 1.668992	 7.373114	 8.949719	 15.204370	 20.454510	-6.400467	-8.239867	-2.131385	 0.447455
-0.016797	 1.254376	 0.115429	 3.878409	-1.117777	 174.519000	-171.579100	 17.711260	 8.205832	 2.450331	-24.877430	 1.338517	 46.340540	 46.266270	-63.292040	 4.912839	 28.009750	-6.307179	-173.405900	 7.457526	-1.352900	-1.922367	-21.267440	 1.280713	-58.846130	 58.454750	 65.788450	-0.422547	 31.227900	 1.678712	 0.744055	 2.878464	-7.945009	 8.615843	 5.259916	-4.286670	-7.109027	-3.986977	 14.445090	-112.305200	 2.804943	 88.270390	 3.705969	 54.979310	 23.124930	 4.834126	-0.254504	 0.566930	 6.119231	-4.445008	-67.131410	-7.716845	 12.755270	-5.908139	-7.230106	 12.606990	 2.796227	 4.963066	-4.014628	-0.346955	 1.251716	-13.510490	 1.489974	-1.858799	 10.071090	-25.525790	 108.803300	 0.921336	-88.719600	-10.641450	 64.636990	 11.342350	-4.731312	-0.437326	 40.587680	-4.781589	 10.161450	-80.832030	 1.756733	 7.610119	 8.953033	 15.203970	 20.401940	-6.386067	-8.239867	-2.131385	 0.447455
